<?xml version="1.0" encoding="UTF-8" standalone="no"?>
<svg
   id="v1_wordmark"
   width="1036.56"
   height="190"
   viewBox="0 0 1036.56 190"
   version="1.1"
   sodipodi:docname="DL-logo.svg"
   inkscape:version="1.4.2 (ebf0e940, 2025-05-08)"
   xmlns:inkscape="http://www.inkscape.org/namespaces/inkscape"
   xmlns:sodipodi="http://sodipodi.sourceforge.net/DTD/sodipodi-0.dtd"
   xmlns="http://www.w3.org/2000/svg"
   xmlns:svg="http://www.w3.org/2000/svg">
  <defs
     id="defs2" />
  <sodipodi:namedview
     id="namedview2"
     pagecolor="#ffffff"
     bordercolor="#000000"
     borderopacity="0.25"
     inkscape:showpageshadow="2"
     inkscape:pageopacity="0.0"
     inkscape:pagecheckerboard="0"
     inkscape:deskcolor="#d1d1d1"
     inkscape:zoom="1.0947368"
     inkscape:cx="448.05289"
     inkscape:cy="79.014423"
     inkscape:window-width="1512"
     inkscape:window-height="848"
     inkscape:window-x="544"
     inkscape:window-y="1730"
     inkscape:window-maximized="1"
     inkscape:current-layer="v1_wordmark" />
  <g
     id="g2">
    <rect
       x="7"
       y="7"
       rx="40"
       ry="40"
       width="1022.56"
       height="176"
       fill="none"
       stroke="#000"
       stroke-width="14"
       id="rect1"
       style="fill:#ffffff;opacity:1;fill-opacity:1" />
    <path
       d="M7,47 a40,40 0 0 1 40,-40 H227 V183 H47 a40,40 0 0 1 -40,-40 Z M 139.13578664 44.28107388 L 139.57177765 44.32278477 L 140.1634372 44.40861546 L 140.61086352 44.49687332 L 141.1819237 44.63992447 L 141.62700488 44.77623701 L 142.1774657 44.97650862 L 142.60579212 45.15792825 L 143.13565357 45.41542031 L 143.53441112 45.63478907 L 144.0436732 45.9495016 L 144.40346505 46.19673702 L 144.89212777 46.56867 L 145.20783028 46.83260283 L 145.67589364 47.26175627 L 145.95162264 47.53748527 L 146.38077608 48.00554863 L 146.64470891 48.32125114 L 147.01664189 48.80991386 L 147.26387731 49.16970571 L 147.57858984 49.67896779 L 147.7979586 50.07772534 L 148.05545066 50.60758679 L 148.23687029 51.03591321 L 148.4371419 51.58637403 L 148.57345446 52.03145528 L 148.7165056 52.60251546 L 148.80476344 53.0499417 L 148.89059413 53.64160124 L 148.93230502 54.07759226 L 148.96091525 54.68985117 L 148.96582031 54.89990234 L 148.96582031 129.28173828 L 187.97167969 129.28173828 L 188.17175416 129.28618824 L 188.80175141 129.31422627 L 189.21810606 129.35219679 L 189.82635954 129.43631086 L 190.2560709 129.51718042 L 190.8425806 129.65737055 L 191.27361359 129.78343838 L 191.83837952 129.97970455 L 192.25759656 130.1494518 L 192.80061872 130.40179402 L 193.19565822 130.60978966 L 193.7169366 130.91820794 L 194.0779705 131.15594072 L 194.57750511 131.52043504 L 194.89832269 131.77779198 L 195.37611352 132.19836236 L 195.66482357 132.47626685 L 196.10256008 132.93689154 L 196.38407616 133.26307097 L 196.76344781 133.74772826 L 197.02555549 134.11993513 L 197.34656226 134.62862501 L 197.57707786 135.04025747 L 197.83971977 135.57297994 L 198.02820475 136.01282729 L 198.23248179 136.56958236 L 198.37223956 137.02315303 L 198.51815173 137.60394069 L 198.60736339 138.05575564 L 198.69491069 138.66057589 L 198.73648782 139.0966275 L 198.76567025 139.72548034 L 198.76567025 140.14268371 L 198.73648782 140.77153656 L 198.69491069 141.20758818 L 198.60736339 141.81240843 L 198.51815173 142.26422338 L 198.37223956 142.84501104 L 198.23248178 143.29858173 L 198.02820474 143.85533679 L 197.83971977 144.29518412 L 197.57707786 144.82790659 L 197.34656228 145.23953902 L 197.02555551 145.74822891 L 196.76344779 146.12043585 L 196.38407614 146.60509313 L 196.10256011 146.93127248 L 195.6648236 147.39189718 L 195.37611349 147.66980174 L 194.89832266 148.09037211 L 194.57750511 148.34772902 L 194.0779705 148.71222334 L 193.7169366 148.94995612 L 193.19565822 149.2583744 L 192.80061872 149.46637004 L 192.25759656 149.71871226 L 191.83837959 149.88845949 L 191.27361366 150.08472567 L 190.84258053 150.21079354 L 190.25607083 150.35098366 L 189.82635961 150.43185319 L 189.21810613 150.51596727 L 188.80175134 150.55393781 L 188.17175409 150.58197583 L 187.97167969 150.58642578 L 132.16113281 150.58642578 L 130.83808965 150.38753689 L 129.63199697 149.80845102 L 128.64946741 148.9003565 L 127.97735172 147.7435244 L 127.66113281 146.08642578 L 127.66113281 54.89990234 L 127.66603787 54.68985117 L 127.6946481 54.07759226 L 127.73635899 53.64160124 L 127.82218968 53.0499417 L 127.91044754 52.60251539 L 128.05349869 52.03145521 L 128.18981121 51.5863741 L 128.39008281 51.03591328 L 128.57150249 50.60758672 L 128.82899456 50.07772527 L 129.04836325 49.67896784 L 129.36307577 49.16970576 L 129.61031127 48.80991382 L 129.98224426 48.3212511 L 130.24617705 48.00554863 L 130.67533049 47.53748527 L 130.95105945 47.2617563 L 131.4191228 46.83260286 L 131.73482535 46.56867 L 132.22348807 46.19673702 L 132.58327995 45.94950158 L 133.09254204 45.63478905 L 133.49129956 45.41542031 L 134.02116101 45.15792825 L 134.44948741 44.97650863 L 134.99994822 44.77623702 L 135.44502943 44.63992447 L 136.01608962 44.49687332 L 136.46351592 44.40861546 L 137.05517546 44.32278477 L 137.49116648 44.28107388 L 138.10342539 44.25246365 L 138.52352773 44.25246365 Z M 71.12558436 44.25411205 L 72.31176447 44.31819897 L 72.65833581 44.35040414 L 73.83650507 44.50604379 L 74.17724696 44.56445179 L 75.34740534 44.81164417 L 75.6765851 44.89426319 L 76.83873262 45.23300831 L 77.15150214 45.33674215 L 78.3056388 45.76704 L 78.59833613 45.88806258 L 79.74446192 46.40991316 L 80.0147232 46.5440828 L 81.15283813 47.15748612 L 81.39953786 47.30071995 L 82.52964193 48.00567601 L 82.74650909 48.1498379 L 83.83541442 48.92002528 L 84.0426553 49.07575325 L 85.05717404 49.88485054 L 85.26542071 50.06153072 L 86.20555285 50.90953792 L 86.41168824 51.10770838 L 87.27743379 51.99462549 L 87.47793178 52.21408192 L 88.26929072 53.13990895 L 88.46040046 53.37955913 L 89.17737282 54.34429607 L 89.35537189 54.6020874 L 89.99795764 55.60573425 L 90.15944377 55.87868329 L 90.72764293 56.92124005 L 90.81084961 57.0814806 L 102.96905273 81.6908556 L 102.98895754 81.73166195 L 103.79576601 83.40707699 L 103.90085694 83.6423071 L 104.60009095 85.33603269 L 104.69379319 85.58337354 L 105.28545274 87.29540967 L 105.36587823 87.55288096 L 105.84996331 89.28322764 L 105.91553925 89.54839944 L 106.29204987 91.29705667 L 106.34163417 91.56715127 L 106.61057033 93.33411904 L 106.64353496 93.60615097 L 106.80489665 95.39142929 L 106.82116614 95.6623679 L 106.87495338 97.46595677 L 106.87437688 97.75234627 L 106.81715642 99.44263862 L 106.7970108 99.74203206 L 106.62534942 101.44376851 L 106.58660331 101.73336428 L 106.30050101 103.44654483 L 106.2453034 103.72333424 L 105.84476019 105.44795887 L 105.77561542 105.70968466 L 105.26063129 107.44575339 L 105.18018753 107.69092522 L 104.55076248 109.43843803 L 104.4616297 109.66627735 L 103.71776373 111.42523426 L 103.62237639 111.63557242 L 102.76406951 113.40597342 L 102.734911 113.46501335 L 90.50346569 137.7814196 L 90.44162948 137.89993309 L 89.82364852 139.04262566 L 89.67450548 139.29797671 L 88.99243761 140.38230441 L 88.82266198 140.63307026 L 88.07650719 141.65903309 L 87.88732409 141.90131011 L 87.0770824 142.86890807 L 86.87058423 143.09897002 L 85.99625561 144.00820311 L 85.7752989 144.22277407 L 84.83688337 145.0736423 L 84.60489425 145.27012625 L 83.60239181 146.0626296 L 83.36311142 146.2392586 L 82.29652207 146.97339709 L 82.04015382 147.13736464 L 80.92549928 147.79826094 L 80.64131661 147.95322343 L 79.49461861 148.52600023 L 79.19500463 148.66220423 L 78.01626317 149.14686152 L 77.70559509 149.26142565 L 76.49481018 149.65796343 L 76.17807675 149.74899697 L 74.93524838 150.05741524 L 74.6176572 150.12417093 L 73.34278538 150.3444697 L 73.02935067 150.38734667 L 71.72243538 150.51952593 L 71.41761961 150.5399317 L 70.07866087 150.58399145 L 69.93066406 150.58642578 L 46.41992188 150.58642578 L 46.21540186 150.58177577 L 45.58654901 150.55316554 L 45.15880399 150.51317647 L 44.55398374 150.42734578 L 44.11003869 150.34139807 L 43.52925103 150.19834693 L 43.08230227 150.06331527 L 42.5255472 149.86304366 L 42.09038825 149.68020396 L 41.55766578 149.42271189 L 41.14842527 149.19800524 L 40.63973539 148.88329272 L 40.26767088 148.62639685 L 39.78301359 148.25446387 L 39.45511995 147.97699212 L 38.99449526 147.54783867 L 38.71474752 147.26299846 L 38.29417715 146.79493511 L 38.0343579 146.47783724 L 37.66986357 145.98917452 L 37.42780177 145.62975653 L 37.1193835 145.12049444 L 36.90573754 144.72425439 L 36.65339531 144.19439294 L 36.47755102 143.7708021 L 36.28128485 143.22034129 L 36.14968192 142.78191484 L 36.00949179 142.21085466 L 35.92452764 141.77138031 L 35.84041357 141.17972076 L 35.80032727 140.75219993 L 35.77228925 140.13994102 L 35.77202808 139.73400763 L 35.8000661 139.10401038 L 35.83803663 138.68765566 L 35.9221507 138.07940218 L 36.00302025 137.64969084 L 36.14321038 137.06318113 L 36.26927822 136.63214812 L 36.46554439 136.06738219 L 36.63529168 135.64816505 L 36.88763391 135.1051429 L 37.09562948 134.71010356 L 37.40404775 134.18882518 L 37.6417806 133.82779117 L 38.00627493 133.32825656 L 38.2636318 133.00743906 L 38.68420217 132.52964823 L 38.96210669 132.24093815 L 39.42273138 131.80320164 L 39.74891081 131.52168556 L 40.2335681 131.14231391 L 40.60577497 130.88020623 L 41.11446485 130.55919946 L 41.52609731 130.32868386 L 42.05881978 130.06604195 L 42.49866713 129.87755697 L 43.0554222 129.67327993 L 43.50899287 129.53352216 L 44.08978053 129.38760999 L 44.54159548 129.29839833 L 45.14641573 129.21085103 L 45.58246735 129.1692739 L 46.2113202 129.14009147 L 46.41992188 129.13525391 L 48.36523438 129.13525391 L 48.36523438 65.69873047 L 46.56640625 65.69873047 L 46.35780449 65.6938929 L 45.72895165 65.66471046 L 45.29290012 65.62313334 L 44.68807986 65.53558604 L 44.23626488 65.44637438 L 43.65547723 65.30046221 L 43.20190658 65.16070444 L 42.64515151 64.9564274 L 42.20530422 64.76794245 L 41.67258175 64.50530055 L 41.26094918 64.27478488 L 40.7522593 63.9537781 L 40.38005252 63.6916705 L 39.89539523 63.31229886 L 39.5692158 63.03078277 L 39.1085911 62.59304626 L 38.8306865 62.30433611 L 38.41011613 61.82654527 L 38.15275929 61.5057278 L 37.78826497 61.0061932 L 37.55053216 60.64515926 L 37.24211388 60.12388088 L 37.03411824 59.72884138 L 36.78177602 59.18581922 L 36.61202879 58.76660225 L 36.41576261 58.20183632 L 36.28969474 57.77080319 L 36.14950462 57.18429349 L 36.06863509 56.75458227 L 35.98452101 56.14632879 L 35.94655047 55.729974 L 35.91851245 55.09997674 L 35.91877362 54.69404335 L 35.94681164 54.08178444 L 35.98689796 53.65426352 L 36.07101204 53.06260398 L 36.15597615 52.6231298 L 36.29616627 52.05206962 L 36.42776924 51.61364304 L 36.62403542 51.06318222 L 36.79987966 50.6395915 L 37.05222188 50.10973005 L 37.26586793 49.71348984 L 37.57428621 49.20422776 L 37.81634792 48.84480991 L 38.18084224 48.35614719 L 38.44066149 48.03904931 L 38.86123186 47.57098595 L 39.1409797 47.28614563 L 39.6016044 46.85699219 L 39.92949797 46.57952051 L 40.41415526 46.20758753 L 40.78621972 45.95069169 L 41.2949096 45.63597916 L 41.70415022 45.41127245 L 42.23687269 45.15378039 L 42.67203158 44.97094072 L 43.22878665 44.77066911 L 43.67573532 44.63563747 L 44.25652297 44.49258632 L 44.70046812 44.40663859 L 45.30528838 44.3208079 L 45.73303339 44.28081883 L 46.36188623 44.2522086 L 46.56640625 44.24755859 L 70.8828125 44.24755859 Z M 69.66992188 129.26138972 L 69.89143997 129.24735344 L 70.18989756 129.18670626 L 70.4145002 129.10500557 L 70.61025356 128.99734122 L 70.81680316 128.83858027 L 71.05654194 128.59191027 L 71.33206189 128.2216156 L 71.68141253 127.61612341 L 83.72521691 103.67362072 L 84.61413209 101.62952544 L 84.92157392 100.78653979 L 85.17372373 99.97947965 L 85.35893189 99.2531564 L 85.48167464 98.61251844 L 85.54839133 98.06228508 L 85.56951469 97.56827104 L 85.54923994 96.85946558 L 85.48631532 96.13625197 L 85.38225903 95.42866924 L 85.2371665 94.7338833 L 85.05061426 94.04902928 L 84.82167375 93.3713654 L 84.54896882 92.69841351 L 84.19795734 91.95894933 L 71.70541367 67.11912413 L 71.42060925 66.6515804 L 71.19613081 66.37287402 L 70.98889173 66.17974923 L 70.77930293 66.03616526 L 70.53174984 65.91641397 L 70.20507955 65.81306295 L 69.76484481 65.73599668 L 69.66992188 65.73085754 Z"
       fill="#000"
       fill-rule="evenodd"
       id="path1" />
    <path
       d="M290.505859375 84.4794921875L293.564453125 87.0634765625L293.564453125 66.1279296875Q293.564453125 64.2822265625 294.830078125 62.990234375Q296.095703125 61.6982421875 297.888671875 61.6982421875L297.888671875 61.6982421875Q299.734375 61.6982421875 301.0791015625 62.990234375Q302.423828125 64.2822265625 302.423828125 66.1279296875L302.423828125 66.1279296875L302.423828125 127.3525390625Q302.423828125 129.1982421875 301.10546875 130.490234375Q299.787109375 131.7822265625 297.994140625 131.7822265625L297.994140625 131.7822265625Q296.095703125 131.7822265625 294.830078125 130.490234375Q293.564453125 129.1982421875 293.564453125 127.3525390625L293.564453125 127.3525390625L293.564453125 125.4013671875Q287.078125 131.7822265625 281.435546875 131.7822265625L281.435546875 131.7822265625L273.89453125 131.7822265625Q269.359375 131.7822265625 264.82421875 127.8798828125L264.82421875 127.8798828125L261.1328125 124.7685546875Q259.8671875 123.5556640625 258.7333984375 120.7080078125Q257.599609375 117.8603515625 257.599609375 115.3818359375L257.599609375 115.3818359375L257.599609375 97.3466796875Q257.599609375 94.3408203125 258.865234375 91.51953125Q260.130859375 88.6982421875 261.818359375 87.2744140625L261.818359375 87.2744140625L265.45703125 84.1630859375Q269.359375 80.7880859375 274.6328125 80.7880859375L274.6328125 80.7880859375L281.013671875 80.7880859375Q286.234375 80.7880859375 290.505859375 84.4794921875L290.505859375 84.4794921875ZM280.697265625 89.7529296875L280.697265625 89.7529296875L274.52734375 89.7529296875Q272.576171875 89.7529296875 270.994140625 91.1767578125L270.994140625 91.1767578125L268.146484375 93.6552734375Q266.669921875 94.9736328125 266.669921875 97.0302734375L266.669921875 97.0302734375L266.669921875 115.8037109375Q266.669921875 117.6494140625 268.41015625 119.1259765625L268.41015625 119.1259765625L271.310546875 121.6044921875Q272.681640625 122.8173828125 274.2109375 122.8173828125L274.2109375 122.8173828125L281.435546875 122.8173828125Q282.859375 122.8173828125 284.810546875 121.1826171875L284.810546875 121.1826171875L291.82421875 115.3818359375Q293.564453125 113.8525390625 293.564453125 111.5849609375L293.564453125 111.5849609375L293.564453125 101.9873046875Q293.564453125 98.7705078125 291.71875 97.2412109375L291.71875 97.2412109375L284.494140625 91.0712890625Q283.0703125 89.7529296875 280.697265625 89.7529296875ZM368.76171875 97.5576171875L368.76171875 97.5576171875L368.76171875 108.2626953125Q368.76171875 110.0556640625 367.443359375 111.3740234375Q366.125 112.6923828125 364.33203125 112.6923828125L364.33203125 112.6923828125L333.0078125 112.6923828125L333.0078125 115.2763671875Q333.0078125 117.5439453125 334.958984375 119.1259765625L334.958984375 119.1259765625L337.54296875 121.2880859375Q339.65234375 122.9228515625 341.55078125 122.9228515625L341.55078125 122.9228515625L364.33203125 122.9228515625Q366.125 122.9228515625 367.443359375 124.21484375Q368.76171875 125.5068359375 368.76171875 127.3525390625L368.76171875 127.3525390625Q368.76171875 129.1455078125 367.4169921875 130.4638671875Q366.072265625 131.7822265625 364.33203125 131.7822265625L364.33203125 131.7822265625L340.970703125 131.7822265625Q338.650390625 131.7822265625 336.0927734375 130.806640625Q333.53515625 129.8310546875 332.322265625 128.7763671875L332.322265625 128.7763671875L328.3671875 125.2958984375Q326.521484375 123.8193359375 325.2822265625 121.1826171875Q324.04296875 118.5458984375 324.04296875 116.3310546875L324.04296875 116.3310546875L324.04296875 96.0283203125Q324.04296875 94.2880859375 325.3876953125 91.3349609375Q326.732421875 88.3818359375 328.7890625 86.7470703125L328.7890625 86.7470703125L332.48046875 83.8466796875Q336.119140625 80.8935546875 340.548828125 80.8935546875L340.548828125 80.8935546875L352.994140625 80.8935546875Q357.6875 80.8935546875 361.853515625 84.7958984375L361.853515625 84.7958984375L365.17578125 87.9599609375Q368.76171875 91.1767578125 368.76171875 97.5576171875ZM333.11328125 96.8720703125L333.11328125 96.8720703125L333.11328125 103.7275390625L360.0078125 103.7275390625L360.0078125 97.5576171875Q360.0078125 95.0791015625 358.478515625 93.7607421875L358.478515625 93.7607421875L355.89453125 91.4931640625Q353.890625 89.8583984375 352.30859375 89.8583984375L352.30859375 89.8583984375L341.181640625 89.8583984375Q339.125 89.8583984375 337.4375 91.2822265625L337.4375 91.2822265625L334.853515625 93.4443359375Q333.11328125 94.7626953125 333.11328125 96.8720703125ZM434.994140625 85.3232421875L434.994140625 85.3232421875L434.994140625 93.7607421875L419.6484375 128.6708984375Q418.171875 131.7822265625 415.74609375 131.7822265625L415.74609375 131.7822265625L410.05078125 131.7822265625Q406.939453125 131.7822265625 405.515625 128.5654296875L405.515625 128.5654296875L390.275390625 93.8662109375L390.275390625 85.3232421875Q390.275390625 83.4775390625 391.5673828125 82.185546875Q392.859375 80.8935546875 394.705078125 80.8935546875L394.705078125 80.8935546875Q396.55078125 80.8935546875 397.8427734375 82.185546875Q399.134765625 83.4775390625 399.134765625 85.3232421875L399.134765625 85.3232421875L399.134765625 92.1259765625L412.634765625 122.5009765625L426.029296875 92.0205078125L426.029296875 85.3232421875Q426.029296875 83.4775390625 427.34765625 82.185546875Q428.666015625 80.8935546875 430.564453125 80.8935546875L430.564453125 80.8935546875Q432.41015625 80.8935546875 433.7021484375 82.185546875Q434.994140625 83.4775390625 434.994140625 85.3232421875ZM474.33203125 57.7958984375L474.33203125 57.7958984375L478.97265625 57.7958984375Q480.818359375 57.7958984375 482.1103515625 59.087890625Q483.40234375 60.3798828125 483.40234375 62.2255859375L483.40234375 62.2255859375L483.40234375 66.0224609375Q483.40234375 67.8681640625 482.1103515625 69.212890625Q480.818359375 70.5576171875 478.97265625 70.5576171875L478.97265625 70.5576171875L474.2265625 70.5576171875Q472.328125 70.5576171875 471.0361328125 69.1865234375Q469.744140625 67.8154296875 469.796875 66.1279296875L469.796875 66.1279296875L469.90234375 62.2255859375Q469.90234375 60.3798828125 471.1943359375 59.087890625Q472.486328125 57.7958984375 474.33203125 57.7958984375ZM492.3671875 131.6767578125L492.3671875 131.6767578125L465.3671875 131.6767578125Q463.521484375 131.6767578125 462.2294921875 130.384765625Q460.9375 129.0927734375 460.9375 127.2470703125L460.9375 127.2470703125Q460.9375 125.4541015625 462.2294921875 124.1357421875Q463.521484375 122.8173828125 465.3671875 122.8173828125L465.3671875 122.8173828125L474.4375 122.8173828125L474.4375 89.7529296875L465.47265625 89.7529296875Q463.626953125 89.7529296875 462.3349609375 88.4345703125Q461.04296875 87.1162109375 461.04296875 85.3232421875L461.04296875 85.3232421875Q461.04296875 83.4775390625 462.3349609375 82.1328125Q463.626953125 80.7880859375 465.47265625 80.7880859375L465.47265625 80.7880859375L478.97265625 80.7880859375Q480.818359375 80.7880859375 482.1103515625 82.1328125Q483.40234375 83.4775390625 483.40234375 85.3232421875L483.40234375 85.3232421875L483.40234375 122.8173828125L492.26171875 122.8173828125Q494.107421875 122.8173828125 495.4521484375 124.109375Q496.796875 125.4013671875 496.796875 127.2470703125L496.796875 127.2470703125Q496.796875 129.0927734375 495.478515625 130.384765625Q494.16015625 131.6767578125 492.3671875 131.6767578125ZM563.134765625 131.7822265625L563.134765625 131.7822265625L544.203125 131.7822265625Q539.193359375 131.7822265625 535.66015625 128.7763671875L535.66015625 128.7763671875L527.064453125 121.2880859375Q522.951171875 117.8603515625 522.951171875 112.0068359375L522.951171875 112.0068359375L522.951171875 100.4580078125Q522.740234375 94.8154296875 527.591796875 90.6494140625L527.591796875 90.6494140625L535.34375 83.9521484375Q539.087890625 80.8935546875 543.359375 80.8935546875L543.359375 80.8935546875L563.240234375 80.8935546875Q565.0859375 80.8935546875 566.3779296875 82.185546875Q567.669921875 83.4775390625 567.669921875 85.3232421875L567.669921875 85.3232421875Q567.669921875 87.2216796875 566.3779296875 88.4873046875Q565.0859375 89.7529296875 563.240234375 89.7529296875L563.240234375 89.7529296875L544.203125 89.7529296875Q542.41015625 89.7529296875 540.775390625 91.1767578125L540.775390625 91.1767578125L533.65625 97.2412109375Q531.916015625 98.7177734375 531.916015625 101.1962890625L531.916015625 101.1962890625L531.916015625 112.0068359375Q531.916015625 113.7470703125 533.287109375 114.9599609375L533.287109375 114.9599609375L541.091796875 121.6044921875Q542.568359375 122.9228515625 544.994140625 122.9228515625L544.994140625 122.9228515625L563.134765625 122.9228515625Q564.927734375 122.9228515625 566.24609375 124.21484375Q567.564453125 125.5068359375 567.564453125 127.3525390625L567.564453125 127.3525390625Q567.564453125 129.1982421875 566.2724609375 130.490234375Q564.98046875 131.7822265625 563.134765625 131.7822265625ZM633.69140625 97.5576171875L633.69140625 97.5576171875L633.69140625 108.2626953125Q633.69140625 110.0556640625 632.373046875 111.3740234375Q631.0546875 112.6923828125 629.26171875 112.6923828125L629.26171875 112.6923828125L597.9375 112.6923828125L597.9375 115.2763671875Q597.9375 117.5439453125 599.888671875 119.1259765625L599.888671875 119.1259765625L602.47265625 121.2880859375Q604.58203125 122.9228515625 606.48046875 122.9228515625L606.48046875 122.9228515625L629.26171875 122.9228515625Q631.0546875 122.9228515625 632.373046875 124.21484375Q633.69140625 125.5068359375 633.69140625 127.3525390625L633.69140625 127.3525390625Q633.69140625 129.1455078125 632.3466796875 130.4638671875Q631.001953125 131.7822265625 629.26171875 131.7822265625L629.26171875 131.7822265625L605.900390625 131.7822265625Q603.580078125 131.7822265625 601.0224609375 130.806640625Q598.46484375 129.8310546875 597.251953125 128.7763671875L597.251953125 128.7763671875L593.296875 125.2958984375Q591.451171875 123.8193359375 590.2119140625 121.1826171875Q588.97265625 118.5458984375 588.97265625 116.3310546875L588.97265625 116.3310546875L588.97265625 96.0283203125Q588.97265625 94.2880859375 590.3173828125 91.3349609375Q591.662109375 88.3818359375 593.71875 86.7470703125L593.71875 86.7470703125L597.41015625 83.8466796875Q601.048828125 80.8935546875 605.478515625 80.8935546875L605.478515625 80.8935546875L617.923828125 80.8935546875Q622.6171875 80.8935546875 626.783203125 84.7958984375L626.783203125 84.7958984375L630.10546875 87.9599609375Q633.69140625 91.1767578125 633.69140625 97.5576171875ZM598.04296875 96.8720703125L598.04296875 96.8720703125L598.04296875 103.7275390625L624.9375 103.7275390625L624.9375 97.5576171875Q624.9375 95.0791015625 623.408203125 93.7607421875L623.408203125 93.7607421875L620.82421875 91.4931640625Q618.8203125 89.8583984375 617.23828125 89.8583984375L617.23828125 89.8583984375L606.111328125 89.8583984375Q604.0546875 89.8583984375 602.3671875 91.2822265625L602.3671875 91.2822265625L599.783203125 93.4443359375Q598.04296875 94.7626953125 598.04296875 96.8720703125ZM667.703125 80.8935546875L667.703125 80.8935546875L688.005859375 80.8935546875Q692.751953125 80.8935546875 696.390625 83.71484375Q700.029296875 86.5361328125 700.029296875 89.2255859375L700.029296875 89.2255859375Q700.029296875 91.1240234375 698.6845703125 92.3369140625Q697.33984375 93.5498046875 695.705078125 93.5498046875L695.705078125 93.5498046875Q693.595703125 93.5498046875 691.85546875 91.6513671875Q690.115234375 89.7529296875 688.216796875 89.7529296875L688.216796875 89.7529296875L668.177734375 89.7529296875Q665.224609375 89.7529296875 665.224609375 92.2314453125L665.224609375 92.2314453125Q665.224609375 93.9716796875 667.17578125 94.8681640625L667.17578125 94.8681640625L690.748046875 105.3095703125Q694.333984375 106.8916015625 696.6279296875 110.3984375Q698.921875 113.9052734375 698.921875 118.1767578125L698.921875 118.1767578125Q698.921875 123.8720703125 694.8876953125 127.8271484375Q690.853515625 131.7822265625 685.73828125 131.7822265625L685.73828125 131.7822265625L667.80859375 131.7822265625Q663.16796875 131.7822265625 659.1865234375 128.9873046875Q655.205078125 126.1923828125 655.205078125 123.5556640625L655.205078125 123.5556640625Q655.205078125 121.8154296875 656.4970703125 120.470703125Q657.7890625 119.1259765625 659.845703125 119.1259765625L659.845703125 119.1259765625Q661.533203125 119.1259765625 663.4580078125 121.0244140625Q665.3828125 122.9228515625 669.021484375 122.9228515625L669.021484375 122.9228515625L685.52734375 122.9228515625Q687.478515625 122.9228515625 688.796875 121.419921875Q690.115234375 119.9169921875 690.115234375 117.9658203125L690.115234375 117.9658203125Q690.115234375 114.9599609375 687.162109375 113.6416015625L687.162109375 113.6416015625L663.37890625 102.9365234375Q659.951171875 101.4072265625 658.10546875 98.5068359375Q656.259765625 95.6064453125 656.259765625 92.6005859375L656.259765625 92.6005859375Q656.259765625 87.8544921875 659.5556640625 84.3740234375Q662.8515625 80.8935546875 667.703125 80.8935546875ZM766.15625 96.4501953125L766.15625 96.4501953125L766.15625 100.3525390625Q766.15625 102.1982421875 764.8642578125 103.54296875Q763.572265625 104.8876953125 761.7265625 104.8876953125L761.7265625 104.8876953125L725.97265625 104.8876953125Q724.126953125 104.8876953125 722.8349609375 103.54296875Q721.54296875 102.1982421875 721.54296875 100.3525390625L721.54296875 100.3525390625L721.54296875 96.4501953125Q721.54296875 94.6044921875 722.8349609375 93.3125Q724.126953125 92.0205078125 725.97265625 92.0205078125L725.97265625 92.0205078125L761.7265625 92.0205078125Q763.4140625 92.0205078125 764.78515625 93.259765625Q766.15625 94.4990234375 766.15625 96.4501953125ZM823.529296875 131.7822265625L823.529296875 131.7822265625L796.740234375 131.7822265625Q794.89453125 131.7822265625 793.6025390625 130.4375Q792.310546875 129.0927734375 792.310546875 127.2470703125L792.310546875 127.2470703125Q792.310546875 125.4541015625 793.6025390625 124.1357421875Q794.89453125 122.8173828125 796.740234375 122.8173828125L796.740234375 122.8173828125L805.599609375 122.8173828125L805.599609375 70.5576171875L796.634765625 70.5576171875Q794.7890625 70.5576171875 793.4970703125 69.265625Q792.205078125 67.9736328125 792.205078125 66.1279296875L792.205078125 66.1279296875Q792.205078125 64.2822265625 793.4970703125 62.990234375Q794.7890625 61.6982421875 796.634765625 61.6982421875L796.634765625 61.6982421875L810.134765625 61.6982421875Q811.927734375 61.6982421875 813.24609375 63.0166015625Q814.564453125 64.3349609375 814.564453125 66.1279296875L814.564453125 66.1279296875L814.564453125 122.8173828125L823.529296875 122.8173828125Q825.322265625 122.8173828125 826.640625 124.1357421875Q827.958984375 125.4541015625 827.958984375 127.2470703125L827.958984375 127.2470703125Q827.958984375 129.0927734375 826.6669921875 130.4375Q825.375 131.7822265625 823.529296875 131.7822265625ZM867.19140625 99.8251953125L867.19140625 99.8251953125L884.541015625 99.8251953125Q885.96484375 99.8251953125 888.654296875 100.4580078125L888.654296875 100.4580078125L888.548828125 94.1826171875Q888.548828125 92.3369140625 887.2568359375 91.044921875Q885.96484375 89.7529296875 884.119140625 89.7529296875L884.119140625 89.7529296875L867.296875 89.7529296875Q865.50390625 89.7529296875 864.185546875 88.4345703125Q862.8671875 87.1162109375 862.8671875 85.3232421875L862.8671875 85.3232421875Q862.8671875 83.4775390625 864.1591796875 82.185546875Q865.451171875 80.8935546875 867.296875 80.8935546875L867.296875 80.8935546875L884.119140625 80.8935546875Q889.603515625 80.8935546875 893.4794921875 84.7431640625Q897.35546875 88.5927734375 897.513671875 94.1826171875L897.513671875 94.1826171875L898.62109375 127.3525390625Q898.62109375 129.1982421875 897.302734375 130.490234375Q895.984375 131.7822265625 894.19140625 131.7822265625L894.19140625 131.7822265625Q892.29296875 131.7822265625 890.974609375 130.490234375Q889.65625 129.1982421875 889.65625 127.3525390625L889.65625 127.3525390625L882.16796875 131.7822265625L867.19140625 131.7822265625Q861.6015625 131.7822265625 857.69921875 127.8798828125Q853.796875 123.9775390625 853.796875 118.3876953125L853.796875 118.3876953125L853.796875 113.2197265625Q853.796875 107.6826171875 857.7255859375 103.75390625Q861.654296875 99.8251953125 867.19140625 99.8251953125ZM879.689453125 122.7119140625L889.33984375 117.0693359375L889.076171875 113.3251953125Q889.0234375 111.4267578125 887.7578125 110.1611328125Q886.4921875 108.8955078125 884.646484375 108.8955078125L884.646484375 108.8955078125L867.19140625 108.8955078125Q865.345703125 108.8955078125 864.0537109375 110.1875Q862.76171875 111.4794921875 862.76171875 113.3251953125L862.76171875 113.3251953125L862.76171875 118.2822265625Q862.76171875 120.0751953125 864.080078125 121.3935546875Q865.3984375 122.7119140625 867.19140625 122.7119140625L867.19140625 122.7119140625L879.689453125 122.7119140625ZM929.310546875 66.1279296875L929.310546875 66.1279296875L929.310546875 86.9580078125L933.212890625 83.8466796875Q936.904296875 80.7880859375 940.859375 80.7880859375L940.859375 80.7880859375L948.98046875 80.7880859375Q953.462890625 80.7880859375 956.943359375 83.8466796875L956.943359375 83.8466796875L961.162109375 87.4853515625Q962.90234375 89.0146484375 964.0361328125 91.8623046875Q965.169921875 94.7099609375 965.169921875 97.4521484375L965.169921875 97.4521484375L965.169921875 115.3818359375Q965.169921875 117.8076171875 964.115234375 120.4970703125Q963.060546875 123.1865234375 961.689453125 124.4521484375L961.689453125 124.4521484375L957.83984375 128.0908203125Q956.36328125 129.5146484375 953.62109375 130.6484375Q950.87890625 131.7822265625 948.98046875 131.7822265625L948.98046875 131.7822265625L941.38671875 131.7822265625Q935.849609375 131.7822265625 929.310546875 125.6123046875L929.310546875 125.6123046875L929.310546875 127.3525390625Q929.310546875 129.1982421875 928.0185546875 130.490234375Q926.7265625 131.7822265625 924.880859375 131.7822265625L924.880859375 131.7822265625Q923.03515625 131.7822265625 921.7431640625 130.490234375Q920.451171875 129.1982421875 920.451171875 127.3525390625L920.451171875 127.3525390625L920.451171875 66.1279296875Q920.451171875 64.2822265625 921.76953125 62.990234375Q923.087890625 61.6982421875 924.880859375 61.6982421875L924.880859375 61.6982421875Q926.7265625 61.6982421875 928.0185546875 62.990234375Q929.310546875 64.2822265625 929.310546875 66.1279296875ZM948.294921875 89.7529296875L948.294921875 89.7529296875L942.177734375 89.7529296875Q939.962890625 89.7529296875 938.802734375 90.7548828125L938.802734375 90.7548828125L930.83984375 97.5576171875Q929.310546875 98.9287109375 929.310546875 101.6708984375L929.310546875 101.6708984375L929.310546875 111.6904296875Q929.310546875 113.9052734375 931.05078125 115.3818359375L931.05078125 115.3818359375L938.169921875 121.3935546875Q939.69921875 122.8173828125 941.38671875 122.8173828125L941.38671875 122.8173828125L948.611328125 122.8173828125Q950.140625 122.8173828125 951.248046875 121.8681640625L951.248046875 121.8681640625L954.78125 118.7041015625Q956.205078125 117.6494140625 956.205078125 115.6982421875L956.205078125 115.6982421875L956.205078125 97.0302734375Q956.205078125 94.8154296875 954.78125 93.6552734375L954.78125 93.6552734375L951.564453125 90.9658203125Q950.087890625 89.7529296875 948.294921875 89.7529296875Z"
       fill="#000"
       id="path2" />
  </g>
</svg>
