<svg xmlns="http://www.w3.org/2000/svg" viewBox="0 0 220 220" width="110" height="110"><path d="M 111.4217349 0.0089997 L 112.8391495 0.0359268 L 114.2521356 0.0806734 L 115.6605854 0.1431313 L 117.0643908 0.2231927 L 118.4634439 0.3207496 L 119.8576366 0.4356938 L 121.246861 0.5679176 L 122.6310091 0.7173128 L 124.0099728 0.8837715 L 125.3836442 1.0671857 L 126.7519153 1.2674473 L 128.1146781 1.4844485 L 129.4718246 1.7180812 L 130.8232468 1.9682373 L 132.1688367 2.234809 L 133.5084864 2.5176883 L 134.8420878 2.816767 L 136.1695329 3.1319373 L 137.4907138 3.4630912 L 138.8055225 3.8101206 L 140.1138509 4.1729176 L 141.4155911 4.5513741 L 142.7106351 4.9453823 L 143.9988749 5.354834 L 145.2802025 5.7796213 L 146.5545099 6.2196363 L 147.8216891 6.6747708 L 149.0816321 7.144917 L 150.3342309 7.6299668 L 151.5793776 8.1298122 L 152.8169642 8.6443453 L 154.0468826 9.173458 L 155.2690248 9.7170424 L 156.4832829 10.2749904 L 157.6895489 10.8471942 L 158.8877148 11.4335456 L 160.0776726 12.0339367 L 161.2593142 12.6482595 L 162.4325318 13.276406 L 163.5972173 13.9182682 L 164.7532627 14.5737382 L 165.9005601 15.2427078 L 167.0390013 15.9250692 L 168.1684786 16.6207144 L 169.2888838 17.3295353 L 170.4001089 18.051424 L 171.502046 18.7862724 L 172.5945871 19.5339726 L 173.6776242 20.2944166 L 174.7510492 21.0674964 L 175.8147543 21.853104 L 176.8686314 22.6511313 L 177.9125725 23.4614706 L 178.9464696 24.2840136 L 179.9702147 25.1186524 L 180.9836999 25.9652791 L 181.9868171 26.8237857 L 182.9794584 27.6940641 L 183.9615158 28.5760063 L 184.9328812 29.4695044 L 185.8934467 30.3744504 L 186.8431043 31.2907363 L 187.7817459 32.2182541 L 188.7092637 33.1568957 L 189.6255496 34.1065533 L 190.5304956 35.0671188 L 191.4239937 36.0384842 L 192.3059359 37.0205416 L 193.1762143 38.0131829 L 194.0347209 39.0163001 L 194.8813476 40.0297853 L 195.7159864 41.0535304 L 196.5385294 42.0874275 L 197.3488687 43.1313686 L 198.146896 44.1852457 L 198.9325036 45.2489508 L 199.7055834 46.3223758 L 200.4660274 47.4054129 L 201.2137276 48.497954 L 201.948576 49.5998911 L 202.6704647 50.7111162 L 203.3792856 51.8315214 L 204.0749308 52.9609987 L 204.7572922 54.0994399 L 205.4262618 55.2467373 L 206.0817318 56.4027827 L 206.723594 57.5674682 L 207.3517405 58.7406858 L 207.9660633 59.9223274 L 208.5664544 61.1122852 L 209.1528058 62.3104511 L 209.7250096 63.5167171 L 210.2829576 64.7309752 L 210.826542 65.9531174 L 211.3556547 67.1830358 L 211.8701878 68.4206224 L 212.3700332 69.6657691 L 212.855083 70.9183679 L 213.3252292 72.1783109 L 213.7803637 73.4454901 L 214.2203787 74.7197975 L 214.645166 76.0011251 L 215.0546177 77.2893649 L 215.4486259 78.5844089 L 215.8270824 79.8861491 L 216.1898794 81.1944775 L 216.5369088 82.5092862 L 216.8680627 83.8304671 L 217.183233 85.1579122 L 217.4823117 86.4915136 L 217.765191 87.8311633 L 218.0317627 89.1767532 L 218.2819188 90.5281754 L 218.5155515 91.8853219 L 218.7325527 93.2480847 L 218.9328143 94.6163558 L 219.1162285 95.9900272 L 219.2826872 97.3689909 L 219.4320824 98.753139 L 219.5643062 100.1423634 L 219.6792504 101.5365561 L 219.7768073 102.9356092 L 219.8568687 104.3394146 L 219.9193266 105.7478644 L 219.9640732 107.1608505 L 219.9910003 108.5782651 L 220 110 L 219.9910003 111.4217349 L 219.9640732 112.8391495 L 219.9193266 114.2521356 L 219.8568687 115.6605854 L 219.7768073 117.0643908 L 219.6792504 118.4634439 L 219.5643062 119.8576366 L 219.4320824 121.246861 L 219.2826872 122.6310091 L 219.1162285 124.0099728 L 218.9328143 125.3836442 L 218.7325527 126.7519153 L 218.5155515 128.1146781 L 218.2819188 129.4718246 L 218.0317627 130.8232468 L 217.765191 132.1688367 L 217.4823117 133.5084864 L 217.183233 134.8420878 L 216.8680627 136.1695329 L 216.5369088 137.4907138 L 216.1898794 138.8055225 L 215.8270824 140.1138509 L 215.4486259 141.4155911 L 215.0546177 142.7106351 L 214.645166 143.9988749 L 214.2203787 145.2802025 L 213.7803637 146.5545099 L 213.3252292 147.8216891 L 212.855083 149.0816321 L 212.3700332 150.3342309 L 211.8701878 151.5793776 L 211.3556547 152.8169642 L 210.826542 154.0468826 L 210.2829576 155.2690248 L 209.7250096 156.4832829 L 209.1528058 157.6895489 L 208.5664544 158.8877148 L 207.9660633 160.0776726 L 207.3517405 161.2593142 L 206.723594 162.4325318 L 206.0817318 163.5972173 L 205.4262618 164.7532627 L 204.7572922 165.9005601 L 204.0749308 167.0390013 L 203.3792856 168.1684786 L 202.6704647 169.2888838 L 201.948576 170.4001089 L 201.2137276 171.502046 L 200.4660274 172.5945871 L 199.7055834 173.6776242 L 198.9325036 174.7510492 L 198.146896 175.8147543 L 197.3488687 176.8686314 L 196.5385294 177.9125725 L 195.7159864 178.9464696 L 194.8813476 179.9702147 L 194.0347209 180.9836999 L 193.1762143 181.9868171 L 192.3059359 182.9794584 L 191.4239937 183.9615158 L 190.5304956 184.9328812 L 189.6255496 185.8934467 L 188.7092637 186.8431043 L 187.7817459 187.7817459 L 186.8431043 188.7092637 L 185.8934467 189.6255496 L 184.9328812 190.5304956 L 183.9615158 191.4239937 L 182.9794584 192.3059359 L 181.9868171 193.1762143 L 180.9836999 194.0347209 L 179.9702147 194.8813476 L 178.9464696 195.7159864 L 177.9125725 196.5385294 L 176.8686314 197.3488687 L 175.8147543 198.146896 L 174.7510492 198.9325036 L 173.6776242 199.7055834 L 172.5945871 200.4660274 L 171.502046 201.2137276 L 170.4001089 201.948576 L 169.2888838 202.6704647 L 168.1684786 203.3792856 L 167.0390013 204.0749308 L 165.9005601 204.7572922 L 164.7532627 205.4262618 L 163.5972173 206.0817318 L 162.4325318 206.723594 L 161.2593142 207.3517405 L 160.0776726 207.9660633 L 158.8877148 208.5664544 L 157.6895489 209.1528058 L 156.4832829 209.7250096 L 155.2690248 210.2829576 L 154.0468826 210.826542 L 152.8169642 211.3556547 L 151.5793776 211.8701878 L 150.3342309 212.3700332 L 149.0816321 212.855083 L 147.8216891 213.3252292 L 146.5545099 213.7803637 L 145.2802025 214.2203787 L 143.9988749 214.645166 L 142.7106351 215.0546177 L 141.4155911 215.4486259 L 140.1138509 215.8270824 L 138.8055225 216.1898794 L 137.4907138 216.5369088 L 136.1695329 216.8680627 L 134.8420878 217.183233 L 133.5084864 217.4823117 L 132.1688367 217.765191 L 130.8232468 218.0317627 L 129.4718246 218.2819188 L 128.1146781 218.5155515 L 126.7519153 218.7325527 L 125.3836442 218.9328143 L 124.0099728 219.1162285 L 122.6310091 219.2826872 L 121.246861 219.4320824 L 119.8576366 219.5643062 L 118.4634439 219.6792504 L 117.0643908 219.7768073 L 115.6605854 219.8568687 L 114.2521356 219.9193266 L 112.8391495 219.9640732 L 111.4217349 219.9910003 L 110 220 L 108.5782651 219.9910003 L 107.1608505 219.9640732 L 105.7478644 219.9193266 L 104.3394146 219.8568687 L 102.9356092 219.7768073 L 101.5365561 219.6792504 L 100.1423634 219.5643062 L 98.753139 219.4320824 L 97.3689909 219.2826872 L 95.9900272 219.1162285 L 94.6163558 218.9328143 L 93.2480847 218.7325527 L 91.8853219 218.5155515 L 90.5281754 218.2819188 L 89.1767532 218.0317627 L 87.8311633 217.765191 L 86.4915136 217.4823117 L 85.1579122 217.183233 L 83.8304671 216.8680627 L 82.5092862 216.5369088 L 81.1944775 216.1898794 L 79.8861491 215.8270824 L 78.5844089 215.4486259 L 77.2893649 215.0546177 L 76.0011251 214.645166 L 74.7197975 214.2203787 L 73.4454901 213.7803637 L 72.1783109 213.3252292 L 70.9183679 212.855083 L 69.6657691 212.3700332 L 68.4206224 211.8701878 L 67.1830358 211.3556547 L 65.9531174 210.826542 L 64.7309752 210.2829576 L 63.5167171 209.7250096 L 62.3104511 209.1528058 L 61.1122852 208.5664544 L 59.9223274 207.9660633 L 58.7406858 207.3517405 L 57.5674682 206.723594 L 56.4027827 206.0817318 L 55.2467373 205.4262618 L 54.0994399 204.7572922 L 52.9609987 204.0749308 L 51.8315214 203.3792856 L 50.7111162 202.6704647 L 49.5998911 201.948576 L 48.497954 201.2137276 L 47.4054129 200.4660274 L 46.3223758 199.7055834 L 45.2489508 198.9325036 L 44.1852457 198.146896 L 43.1313686 197.3488687 L 42.0874275 196.5385294 L 41.0535304 195.7159864 L 40.0297853 194.8813476 L 39.0163001 194.0347209 L 38.0131829 193.1762143 L 37.0205416 192.3059359 L 36.0384842 191.4239937 L 35.0671188 190.5304956 L 34.1065533 189.6255496 L 33.1568957 188.7092637 L 32.2182541 187.7817459 L 31.2907363 186.8431043 L 30.3744504 185.8934467 L 29.4695044 184.9328812 L 28.5760063 183.9615158 L 27.6940641 182.9794584 L 26.8237857 181.9868171 L 25.9652791 180.9836999 L 25.1186524 179.9702147 L 24.2840136 178.9464696 L 23.4614706 177.9125725 L 22.6511313 176.8686314 L 21.853104 175.8147543 L 21.0674964 174.7510492 L 20.2944166 173.6776242 L 19.5339726 172.5945871 L 18.7862724 171.502046 L 18.051424 170.4001089 L 17.3295353 169.2888838 L 16.6207144 168.1684786 L 15.9250692 167.0390013 L 15.2427078 165.9005601 L 14.5737382 164.7532627 L 13.9182682 163.5972173 L 13.276406 162.4325318 L 12.6482595 161.2593142 L 12.0339367 160.0776726 L 11.4335456 158.8877148 L 10.8471942 157.6895489 L 10.2749904 156.4832829 L 9.7170424 155.2690248 L 9.173458 154.0468826 L 8.6443453 152.8169642 L 8.1298122 151.5793776 L 7.6299668 150.3342309 L 7.144917 149.0816321 L 6.6747708 147.8216891 L 6.2196363 146.5545099 L 5.7796213 145.2802025 L 5.354834 143.9988749 L 4.9453823 142.7106351 L 4.5513741 141.4155911 L 4.1729176 140.1138509 L 3.8101206 138.8055225 L 3.4630912 137.4907138 L 3.1319373 136.1695329 L 2.816767 134.8420878 L 2.5176883 133.5084864 L 2.234809 132.1688367 L 1.9682373 130.8232468 L 1.7180812 129.4718246 L 1.4844485 128.1146781 L 1.2674473 126.7519153 L 1.0671857 125.3836442 L 0.8837715 124.0099728 L 0.7173128 122.6310091 L 0.5679176 121.246861 L 0.4356938 119.8576366 L 0.3207496 118.4634439 L 0.2231927 117.0643908 L 0.1431313 115.6605854 L 0.0806734 114.2521356 L 0.0359268 112.8391495 L 0.0089997 111.4217349 L 0 110 L 0.0089997 108.5782651 L 0.0359268 107.1608505 L 0.0806734 105.7478644 L 0.1431313 104.3394146 L 0.2231927 102.9356092 L 0.3207496 101.5365561 L 0.4356938 100.1423634 L 0.5679176 98.753139 L 0.7173128 97.3689909 L 0.8837715 95.9900272 L 1.0671857 94.6163558 L 1.2674473 93.2480847 L 1.4844485 91.8853219 L 1.7180812 90.5281754 L 1.9682373 89.1767532 L 2.234809 87.8311633 L 2.5176883 86.4915136 L 2.816767 85.1579122 L 3.1319373 83.8304671 L 3.4630912 82.5092862 L 3.8101206 81.1944775 L 4.1729176 79.8861491 L 4.5513741 78.5844089 L 4.9453823 77.2893649 L 5.354834 76.0011251 L 5.7796213 74.7197975 L 6.2196363 73.4454901 L 6.6747708 72.1783109 L 7.144917 70.9183679 L 7.6299668 69.6657691 L 8.1298122 68.4206224 L 8.6443453 67.1830358 L 9.173458 65.9531174 L 9.7170424 64.7309752 L 10.2749904 63.5167171 L 10.8471942 62.3104511 L 11.4335456 61.1122852 L 12.0339367 59.9223274 L 12.6482595 58.7406858 L 13.276406 57.5674682 L 13.9182682 56.4027827 L 14.5737382 55.2467373 L 15.2427078 54.0994399 L 15.9250692 52.9609987 L 16.6207144 51.8315214 L 17.3295353 50.7111162 L 18.051424 49.5998911 L 18.7862724 48.497954 L 19.5339726 47.4054129 L 20.2944166 46.3223758 L 21.0674964 45.2489508 L 21.853104 44.1852457 L 22.6511313 43.1313686 L 23.4614706 42.0874275 L 24.2840136 41.0535304 L 25.1186524 40.0297853 L 25.9652791 39.0163001 L 26.8237857 38.0131829 L 27.6940641 37.0205416 L 28.5760063 36.0384842 L 29.4695044 35.0671188 L 30.3744504 34.1065533 L 31.2907363 33.1568957 L 32.2182541 32.2182541 L 33.1568957 31.2907363 L 34.1065533 30.3744504 L 35.0671188 29.4695044 L 36.0384842 28.5760063 L 37.0205416 27.6940641 L 38.0131829 26.8237857 L 39.0163001 25.9652791 L 40.0297853 25.1186524 L 41.0535304 24.2840136 L 42.0874275 23.4614706 L 43.1313686 22.6511313 L 44.1852457 21.853104 L 45.2489508 21.0674964 L 46.3223758 20.2944166 L 47.4054129 19.5339726 L 48.497954 18.7862724 L 49.5998911 18.051424 L 50.7111162 17.3295353 L 51.8315214 16.6207144 L 52.9609987 15.9250692 L 54.0994399 15.2427078 L 55.2467373 14.5737382 L 56.4027827 13.9182682 L 57.5674682 13.276406 L 58.7406858 12.6482595 L 59.9223274 12.0339367 L 61.1122852 11.4335456 L 62.3104511 10.8471942 L 63.5167171 10.2749904 L 64.7309752 9.7170424 L 65.9531174 9.173458 L 67.1830358 8.6443453 L 68.4206224 8.1298122 L 69.6657691 7.6299668 L 70.9183679 7.144917 L 72.1783109 6.6747708 L 73.4454901 6.2196363 L 74.7197975 5.7796213 L 76.0011251 5.354834 L 77.2893649 4.9453823 L 78.5844089 4.5513741 L 79.8861491 4.1729176 L 81.1944775 3.8101206 L 82.5092862 3.4630912 L 83.8304671 3.1319373 L 85.1579122 2.816767 L 86.4915136 2.5176883 L 87.8311633 2.234809 L 89.1767532 1.9682373 L 90.5281754 1.7180812 L 91.8853219 1.4844485 L 93.2480847 1.2674473 L 94.6163558 1.0671857 L 95.9900272 0.8837715 L 97.3689909 0.7173128 L 98.753139 0.5679176 L 100.1423634 0.4356938 L 101.5365561 0.3207496 L 102.9356092 0.2231927 L 104.3394146 0.1431313 L 105.7478644 0.0806734 L 107.1608505 0.0359268 L 108.5782651 0.0089997 L 110 0 Z M 39.6788465 62.1686711 L 39.2996938 62.1933378 L 38.92448 62.2358183 L 38.553636 62.2963832 L 38.1876661 62.3752427 L 37.8271373 62.4725296 L 37.4726637 62.5882845 L 37.1248788 62.7224486 L 36.7844166 62.8748586 L 36.4518799 63.0452524 L 36.1278158 63.2332813 L 35.8127016 63.4385219 L 35.5069191 63.6605037 L 35.2107565 63.8987259 L 34.9244011 64.1526827 L 34.6479455 64.4218823 L 34.3860497 64.700563 L 34.1401211 64.9864643 L 33.9089748 65.2811481 L 33.6930397 65.5845454 L 33.4927603 65.8965066 L 33.3085801 66.2167986 L 33.1409248 66.5451022 L 32.9901827 66.8810186 L 32.8566875 67.2240781 L 32.7407021 67.5737574 L 32.6424081 67.9294953 L 32.5618987 68.2907175 L 32.4991778 68.6568573 L 32.4541655 69.0273778 L 32.4267069 69.4017854 L 32.4165853 69.7796494 L 32.4235274 70.1640613 L 32.4474032 70.5435958 L 32.48844 70.9194384 L 32.5468599 71.2912012 L 32.6228305 71.6584335 L 32.7164542 72.0206395 L 32.8277571 72.377288 L 32.9566828 72.7278327 L 33.1030904 73.0717302 L 33.2667599 73.4084644 L 33.4473987 73.7375612 L 33.644655 74.0586064 L 33.858135 74.3712588 L 34.0874173 74.6752537 L 34.3320733 74.9704093 L 34.5916804 75.2566202 L 34.8632182 75.5306407 L 35.1452254 75.7902332 L 35.4372514 76.0344174 L 35.7392269 76.2626891 L 36.0509894 76.4745262 L 36.3722676 76.6694032 L 36.702689 76.8468194 L 37.0417824 77.0063207 L 37.3889915 77.1475226 L 37.7437002 77.2701307 L 38.1052512 77.3739525 L 38.4729799 77.4589049 L 38.8462408 77.5250122 L 39.2244293 77.5723976 L 39.6070086 77.6012696 L 39.9935161 77.6119034 L 44.7857387 77.6123047 L 44.7857387 147.0488281 L 39.8826853 147.0488281 L 39.5326429 147.056525 L 39.1521037 147.0817501 L 38.7754942 147.1252132 L 38.4032734 147.18719 L 38.0359823 147.2678883 L 37.6742218 147.367432 L 37.3186396 147.485845 L 36.9698998 147.6230444 L 36.6286592 147.7788374 L 36.2955344 147.9529301 L 35.9710819 148.1449375 L 35.6557723 148.3544058 L 35.3499793 148.5808336 L 35.0539718 148.823697 L 34.7679151 149.082472 L 34.4918763 149.356656 L 34.2302861 149.6406903 L 33.9846066 149.9323366 L 33.7538774 150.2329288 L 33.5385224 150.5423592 L 33.3389695 150.8604477 L 33.1556404 151.1869283 L 32.9889285 151.5214615 L 32.8391861 151.8636317 L 32.7067054 152.2129655 L 32.5917071 152.5689457 L 32.4943313 152.9310302 L 32.4146347 153.2986716 L 32.352591 153.6713409 L 32.3080984 154.0485386 L 32.2809886 154.4298182 L 32.27104 154.8147882 L 32.2780249 155.1901878 L 32.3020736 155.5629015 L 32.3434593 155.9321603 L 32.4023987 156.29753 L 32.4790468 156.6585208 L 32.5734832 157.0145927 L 32.6857043 157.3651807 L 32.8156166 157.7097097 L 32.963039 158.0476198 L 33.1277081 158.3783863 L 33.309291 158.7015408 L 33.507398 159.0166823 L 33.7216045 159.3234937 L 33.9514662 159.6217406 L 34.19654 159.9112752 L 34.4563959 160.1920268 L 34.7282394 160.4609798 L 35.0106637 160.7158743 L 35.3029881 160.955526 L 35.6051196 161.1794432 L 35.91687 161.3871195 L 36.2379541 161.5780556 L 36.5679858 161.7517787 L 36.9064923 161.9078679 L 37.252923 162.0459726 L 37.6066765 162.1658315 L 37.9671189 162.2672814 L 38.3336164 162.3502631 L 38.7055551 162.4148175 L 39.0823678 162.4610773 L 39.4635504 162.4892526 L 39.8486718 162.4996143 L 63.2392776 162.5 L 63.9330379 162.4887819 L 64.6443398 162.4540699 L 65.3486443 162.3955613 L 66.0457964 162.3131631 L 66.7356203 162.206798 L 67.4179251 162.076407 L 68.0925071 161.9219512 L 68.7591516 161.743415 L 69.4176381 161.5408074 L 70.067745 161.3141619 L 70.709253 161.0635372 L 71.3419503 160.7890164 L 71.965637 160.4907044 L 72.5801283 160.1687265 L 73.1852588 159.8232239 L 73.7808839 159.4543516 L 74.3612245 159.0671176 L 74.9233419 158.664843 L 75.4691487 158.246262 L 75.9984858 157.8114146 L 76.5111946 157.3603593 L 77.0071187 156.8931726 L 77.4861077 156.4099494 L 77.9480197 155.9108001 L 78.3927234 155.3958517 L 78.8201018 154.8652431 L 79.2300535 154.3191231 L 79.6224934 153.7576493 L 79.997355 153.1809834 L 80.3545906 152.5892881 L 80.6941703 151.9827268 L 81.0160829 151.3614568 L 93.1765259 127.0269587 L 93.6185947 126.1372819 L 94.0468611 125.2199964 L 94.4463209 124.3041457 L 94.8168846 123.389717 L 95.1584572 122.4767064 L 95.4709387 121.5651214 L 95.7542248 120.6549808 L 96.0082081 119.746317 L 96.2327798 118.8391756 L 96.427831 117.9336187 L 96.5932548 117.0297225 L 96.7289481 116.1275801 L 96.8348141 115.2272996 L 96.9107641 114.3290045 L 96.9567204 113.4328326 L 96.9726175 112.5389339 L 96.9593079 111.5874272 L 96.9179091 110.6433192 L 96.848442 109.7035126 L 96.7508868 108.7681265 L 96.6252347 107.8372838 L 96.4714884 106.9111091 L 96.2896614 105.9897267 L 96.0797793 105.07326 L 95.8418776 104.1618279 L 95.576003 103.2555457 L 95.2822112 102.3545211 L 94.9605661 101.4588548 L 94.6111393 100.5686388 L 94.2340077 99.6839548 L 93.8292535 98.8048754 L 93.3982745 97.9341107 L 81.3210857 73.3273808 L 81.0329715 72.7712944 L 80.7163477 72.2084292 L 80.379686 71.6562984 L 80.0231 71.1150597 L 79.6467189 70.5848569 L 79.2506818 70.0658154 L 78.835138 69.5580433 L 78.400241 69.0616277 L 77.9461483 68.5766371 L 77.4730149 68.1031185 L 76.9809944 67.6411011 L 76.4702336 67.1905953 L 75.9408728 66.7515955 L 75.393042 66.3240809 L 74.8268627 65.9080184 L 74.242443 65.5033632 L 73.6462178 65.1154023 L 73.0446985 64.749775 L 72.4391852 64.4075418 L 71.8296784 64.0888616 L 71.2161989 63.7939018 L 70.5987912 63.5228364 L 69.9775265 63.2758431 L 69.3525022 63.0530996 L 68.7238452 62.8547792 L 68.0917086 62.6810468 L 67.4562747 62.5320544 L 66.8177487 62.4079358 L 66.1763584 62.3088033 L 65.5323486 62.2347435 L 64.8859761 62.185815 L 64.2375053 62.1620456 L 39.9941958 62.1615185 Z M 130.7605906 62.1720682 L 130.4590263 62.1935258 L 130.0893866 62.2363032 L 129.7236452 62.2972463 L 129.3623486 62.376504 L 129.0060894 62.4741391 L 128.6554866 62.5901181 L 128.3111569 62.7243098 L 127.9736952 62.876486 L 127.6436464 63.0463328 L 127.3214865 63.2334658 L 127.0076105 63.4374462 L 126.7023184 63.6578061 L 126.4058174 63.894066 L 126.1182233 64.1457547 L 125.8395683 64.4124263 L 125.5739206 64.6895544 L 125.3232853 64.9751138 L 125.0876101 65.2695723 L 124.8673353 65.5728818 L 124.6629211 65.8849138 L 124.4748333 66.2054498 L 124.3035235 66.5341812 L 124.1494098 66.8707108 L 124.012856 67.2145663 L 123.8941562 67.5652085 L 123.7935188 67.9220582 L 123.7110599 68.2845128 L 123.6468003 68.6519772 L 123.6006703 69.023879 L 123.5725184 69.399694 L 123.5621249 69.778959 L 123.5617277 161 L 123.6523474 161.513466 L 180.5063487 162.5 L 180.8552855 162.4926207 L 181.2336569 162.4685279 L 181.6083793 162.4270975 L 181.9790431 162.3681058 L 182.3451818 162.2913855 L 182.7062763 162.1968401 L 183.061778 162.0844524 L 183.4111222 161.9542922 L 183.7537529 161.806516 L 184.0891436 161.6413626 L 184.4168156 161.4591435 L 184.7363547 161.2602293 L 185.0474241 161.0450312 L 185.3497681 160.8139851 L 185.6432159 160.5675311 L 185.9276752 160.3061007 L 186.1999364 160.0327351 L 186.4577789 159.7489182 L 186.7002282 159.4551217 L 186.9267882 159.1514305 L 187.1369474 158.8380244 L 187.3301974 158.515184 L 187.5060557 158.1832926 L 187.6640911 157.8428203 L 187.8039413 157.4943209 L 187.9253339 157.1384019 L 188.0280967 156.7757027 L 188.1121621 156.4068699 L 188.177566 156.0325262 L 188.224438 155.6532517 L 188.2529876 155.2695613 L 188.2634873 154.8818965 L 188.2562395 154.4959857 L 188.2312443 154.1143288 L 188.1881991 153.7366466 L 188.1268316 153.3633803 L 188.0469321 152.9950447 L 187.9483712 152.63222 L 187.8311128 152.275529 L 187.6952247 151.9256181 L 187.540879 151.5831269 L 187.3683479 151.2486628 L 187.1779942 150.9227794 L 186.9702486 150.6059473 L 186.7455938 150.2985493 L 186.5045383 150.0008662 L 186.2475935 149.7130779 L 185.9752554 149.4352691 L 185.6930462 149.1719171 L 185.4031867 148.9245057 L 185.1043386 148.6920708 L 184.7965942 148.4750436 L 184.4801246 148.2738646 L 184.1551851 148.0889693 L 183.8221129 147.9207693 L 183.4813218 147.7696349 L 183.1332909 147.6358777 L 182.7785463 147.5197365 L 182.4176444 147.4213679 L 182.0511495 147.3408414 L 181.6796106 147.2781402 L 181.3035464 147.2331674 L 180.9234237 147.2057561 L 180.5396521 147.1956823 L 138.7857387 147.1953125 L 138.7857387 69.8134766 L 138.7782358 69.4702546 L 138.753631 69.0961395 L 138.7112678 68.7254743 L 138.6509265 68.3587223 L 138.5724555 67.9964078 L 138.4757854 67.639103 L 138.3609366 67.2874032 L 138.2280252 66.9419104 L 138.0772605 66.6032057 L 137.9089351 66.271825 L 137.7234144 65.9482442 L 137.5211151 65.6328577 L 137.3024895 65.3259755 L 137.0680035 65.0278159 L 136.8181169 64.7385072 L 136.5532703 64.4580976 L 136.2779589 64.190697 L 135.9941875 63.9383304 L 135.7014778 63.7009471 L 135.3998606 63.4789922 L 135.0894524 63.2729374 L 134.7704603 63.083262 L 134.4431844 62.9104343 L 134.1080194 62.7548925 L 133.7654417 62.6170214 L 133.415996 62.4971349 L 133.060277 62.3954609 L 132.6989018 62.312131 L 132.3324891 62.2471784 L 131.9616316 62.2005404 L 131.5868758 62.1720682 L 131.2087077 62.1615406 Z M 62.974451 77.6252289 L 63.4133213 77.6617642 L 63.8280246 77.7214989 L 64.2192904 77.8035315 L 64.5881649 77.9070739 L 64.9360078 78.0315528 L 65.2644207 78.1767017 L 65.5751765 78.3426498 L 65.8700628 78.5299524 L 66.1507386 78.7395771 L 66.4185894 78.9728254 L 66.6746354 79.2312221 L 66.9194705 79.5163629 L 67.1532822 79.8297898 L 67.3759027 80.1728839 L 67.5897627 80.5518863 L 80.0851073 105.5612566 L 80.2931655 105.9866049 L 80.481362 106.401018 L 80.6563219 106.817953 L 80.818121 107.2374982 L 80.9668235 107.6597371 L 81.1024915 108.0847743 L 81.2251768 108.512717 L 81.3349201 108.9436705 L 81.4317547 109.3777535 L 81.5157032 109.8150865 L 81.5867754 110.2557807 L 81.6449728 110.6999585 L 81.6902856 111.1477371 L 81.7226935 111.5992225 L 81.7421676 112.0545266 L 81.7485905 112.5081273 L 81.741022 112.859313 L 81.7183447 113.2203712 L 81.679988 113.5972533 L 81.6255644 113.9898216 L 81.5547385 114.3979055 L 81.4672251 114.8213106 L 81.3627836 115.2598336 L 81.2412119 115.7132754 L 81.1023493 116.181416 L 80.9460575 116.6640702 L 80.7722291 117.161044 L 80.5807728 117.6721705 L 80.3716263 118.1972651 L 80.1447298 118.7361878 L 79.9000427 119.2887919 L 79.6415996 119.8461762 L 67.5831353 143.9760312 L 67.3505907 144.4079634 L 67.1158949 144.7924638 L 66.8727001 145.1433594 L 66.6216302 145.4615823 L 66.3631092 145.7483309 L 66.0972718 146.0050324 L 65.8238628 146.2332849 L 65.542186 146.4347331 L 65.2510786 146.6109348 L 64.9489843 146.7631919 L 64.6340468 146.8924335 L 64.3042867 146.9991274 L 63.9577729 147.0832679 L 63.5927713 147.1444289 L 63.2078623 147.1818581 L 62.7791726 147.1953125 L 60.0097496 147.1953125 L 60.0097496 77.6123047 L 62.4915868 77.6123047 Z" fill="#000000" fill-rule="evenodd"/></svg>